{"title":"The Judge 2014 HC HDRIP V2 x264 AC3 TiTAN","uid":11282368,"size":1380265273,"categoryP":"video","categoryS":"movies","magnet":"?xt=urn:btih:cbf915f3daabf49bfbe271609069b34e085591f3&amp;dn=The+Judge+2014+HC+HDRIP+V2+x264+AC3+TiTAN&amp;tr=udp%3A%2F%2Ftracker.openbittorrent.com%3A80&amp;tr=udp%3A%2F%2Fopen.demonii.com%3A1337&amp;tr=udp%3A%2F%2Ftracker.coppersurfer.tk%3A6969&amp;tr=udp%3A%2F%2Fexodus.desync.com%3A6969","seeders":10,"leechers":0,"uploader":"xxxlavalxxx","files":-1,"time":1414234695,"description":"[IMG]http://i.imgur.com/rQfSmW2.jpg[/IMG]\n\n &lt;a href=&quot;\nhttp://www.imdb.com/title/tt1872194/&quot; rel=&quot;nofollow&quot; target=&quot;_NEW&quot;&gt;\nhttp://www.imdb.com/title/tt1872194/&lt;/a&gt;\n\n\nBig city lawyer Hank Palmer returns to his childhood home where his father, the town's judge, is suspected of murder. Hank sets out to discover the truth and, along the way, reconnects with his estranged family.\n\nDirector: David Dobkin\nWriters: Nick Schenk (screenplay), Bill Dubuque (screenplay)\nStars: Robert Downey Jr., Robert Duvall, Vera Farmiga\nGenres: Drama\nCountry: USA\nLanguage: English\n\n\nSource: 1080p CHN WEB DL\n\nThere was a problem with audio on first release.. used audio from another source which is perfect.. Enjoy\n\nGeneral\n\nFormat                                   : Matroska\nFormat version                           : Version 2\nFile size                                : 1.43 GiB\nDuration                                 : 2h 21mn\nOverall bit rate mode                    : Variable\nOverall bit rate                         : 1 446 Kbps\nEncoded date                             : UTC 2014-10-25 03:19:35\n\nVideo\nID                                       : 1\nFormat                                   : AVC\nFormat/Info                              : Advanced Video Codec\nFormat profile                           : &lt;a class=&quot;__cf_email__&quot; href=&quot;/cdn-cgi/l/email-protection&quot; data-cfemail=&quot;6a22030d022a265e445b&quot;&gt;[email&amp;#160;protected]&lt;/a&gt;&lt;script cf-hash='f9e31' type=&quot;text/javascript&quot;&gt;\n/* &lt;![CDATA[ */!function(){try{var t=&quot;currentScript&quot;in document?document.currentScript:function(){for(var t=document.getElementsByTagName(&quot;script&quot;),e=t.length;e--;)if(t[e].getAttribute(&quot;cf-hash&quot;))return t[e]}();if(t&amp;&amp;t.previousSibling){var e,r,n,i,c=t.previousSibling,a=c.getAttribute(&quot;data-cfemail&quot;);if(a){for(e=&quot;&quot;,r=parseInt(a.substr(0,2),16),n=2;a.length-n;n+=2)i=parseInt(a.substr(n,2),16)^r,e+=String.fromCharCode(i);e=document.createTextNode(e),c.parentNode.replaceChild(e,c)}}}catch(u){}}();/* ]]&gt; */&lt;/script&gt;\nFormat settings, CABAC                   : Yes\nFormat settings, ReFrames                : 3 frames\nCodec ID                                 : V_MPEG4/ISO/AVC\nDuration                                 : 2h 21mn\nBit rate mode                            : Variable\nBit rate                                 : 1 034 Kbps\nMaximum bit rate                         : 40.0 Mbps\nWidth                                    : 720 pixels\nHeight                                   : 304 pixels\nDisplay aspect ratio                     : 2.35:1\nFrame rate mode                          : Constant\nFrame rate                               : 23.976 fps\nColor space                              : YUV\nChroma subsampling                       : 4:2:0\nBit depth                                : 8 bits\nScan type                                : Progressive\nBits/(Pixel*Frame)                       : 0.197\nStream size                              : 1.02 GiB (71%)\nForced                                   : No\nColor primaries                          : BT.709\nTransfer characteristics                 : BT.709\nMatrix coefficients                      : BT.709\n\nAudio\nID                                       : 2\nFormat                                   : AC-3\nFormat/Info                              : Audio Coding 3\nMode extension                           : CM (complete main)\nFormat settings, Endianness              : Big\nCodec ID                                 : A_AC3\nDuration                                 : 2h 21mn\nBit rate mode                            : Constant\nBit rate                                 : 192 Kbps\nChannel(s)                               : 2 channels\nChannel positions                        : Front: L R\nSampling rate                            : 48.0 KHz\nBit depth                                : 16 bits\nCompression mode                         : Lossy\nStream size                              : 194 MiB (15%)\nDefault                                  : Yes\nForced                                   : No\n\n\n\nscreens\n  &lt;a href=&quot;\nhttp://i.imgur.com/4L3ceMT.jpg&quot; rel=&quot;nofollow&quot; target=&quot;_NEW&quot;&gt;\nhttp://i.imgur.com/4L3ceMT.jpg&lt;/a&gt;  &lt;a href=&quot;\nhttp://i.imgur.com/aKYnU4G.jpg&quot; rel=&quot;nofollow&quot; target=&quot;_NEW&quot;&gt;\nhttp://i.imgur.com/aKYnU4G.jpg&lt;/a&gt;  &lt;a href=&quot;\nhttp://i.imgur.com/Fl9GIxq.jpg&quot; rel=&quot;nofollow&quot; target=&quot;_NEW&quot;&gt;\nhttp://i.imgur.com/Fl9GIxq.jpg&lt;/a&gt;  &lt;a href=&quot;\nhttp://i.imgur.com/Hu27YUx.jpg&quot; rel=&quot;nofollow&quot; target=&quot;_NEW&quot;&gt;\nhttp://i.imgur.com/Hu27YUx.jpg&lt;/a&gt;  &lt;a href=&quot;\nhttp://i.imgur.com/RIGUeg0.jpg&quot; rel=&quot;nofollow&quot; target=&quot;_NEW&quot;&gt;\nhttp://i.imgur.com/RIGUeg0.jpg&lt;/a&gt;","torrent":{"xt":"urn:btih:cbf915f3daabf49bfbe271609069b34e085591f3","amp;dn":"The+Judge+2014+HC+HDRIP+V2+x264+AC3+TiTAN","amp;tr":["udp%3A%2F%2Ftracker.openbittorrent.com%3A80","udp%3A%2F%2Fopen.demonii.com%3A1337","udp%3A%2F%2Ftracker.coppersurfer.tk%3A6969","udp%3A%2F%2Fexodus.desync.com%3A6969"],"infoHash":"cbf915f3daabf49bfbe271609069b34e085591f3","infoHashBuffer":{"type":"Buffer","data":[203,249,21,243,218,171,244,155,251,226,113,96,144,105,179,78,8,85,145,243]},"announce":[],"urlList":[]}}